<svg width="17" height="20" viewBox="0 0 17 20" fill="none" xmlns="http://www.w3.org/2000/svg">
<path d="M0.600098 9.06329V4.27848C0.600098 3.85654 0.720931 3.47679 0.962598 3.13924C1.20426 2.80169 1.51676 2.55696 1.9001 2.40506L7.9001 0.126582C8.13343 0.0421941 8.36676 0 8.6001 0C8.83343 0 9.06676 0.0421941 9.3001 0.126582L15.3001 2.40506C15.6834 2.55696 15.9959 2.80169 16.2376 3.13924C16.4793 3.47679 16.6001 3.85654 16.6001 4.27848V9.06329C16.6001 11.4262 15.9334 13.6329 14.6001 15.6835C13.2668 17.7342 11.4751 19.1392 9.2251 19.8987C9.1251 19.9325 9.0251 19.9578 8.9251 19.9747C8.8251 19.9916 8.71676 20 8.6001 20C8.48343 20 8.3751 19.9916 8.2751 19.9747C8.1751 19.9578 8.0751 19.9325 7.9751 19.8987C5.7251 19.1392 3.93343 17.7342 2.6001 15.6835C1.26676 13.6329 0.600098 11.4262 0.600098 9.06329ZM6.6001 14.0253H10.6001C10.8834 14.0253 11.1209 13.9283 11.3126 13.7342C11.5043 13.5401 11.6001 13.2996 11.6001 13.0127V9.97468C11.6001 9.68776 11.5043 9.44726 11.3126 9.25317C11.1209 9.05907 10.8834 8.96203 10.6001 8.96203V7.94937C10.6001 7.39241 10.4043 6.91561 10.0126 6.51899C9.62093 6.12236 9.1501 5.92405 8.6001 5.92405C8.0501 5.92405 7.57926 6.12236 7.1876 6.51899C6.79593 6.91561 6.6001 7.39241 6.6001 7.94937V8.96203C6.31676 8.96203 6.07926 9.05907 5.8876 9.25317C5.69593 9.44726 5.6001 9.68776 5.6001 9.97468V13.0127C5.6001 13.2996 5.69593 13.5401 5.8876 13.7342C6.07926 13.9283 6.31676 14.0253 6.6001 14.0253ZM7.6001 8.96203V7.94937C7.6001 7.66245 7.69593 7.42194 7.8876 7.22785C8.07926 7.03376 8.31676 6.93671 8.6001 6.93671C8.88343 6.93671 9.12093 7.03376 9.3126 7.22785C9.50426 7.42194 9.6001 7.66245 9.6001 7.94937V8.96203H7.6001Z" fill="url(#paint0_linear_2056_230)"/>
<defs>
<linearGradient id="paint0_linear_2056_230" x1="16.6001" y1="10" x2="0.600098" y2="10" gradientUnits="userSpaceOnUse">
<stop stop-color="#F74872"/>
<stop offset="0.495" stop-color="#FC7B49"/>
<stop offset="1" stop-color="#F74872"/>
</linearGradient>
</defs>
</svg>
