<svg width="21" height="14" viewBox="0 0 21 14" fill="none" xmlns="http://www.w3.org/2000/svg">
<path d="M17.691 3.5H15.0319V0H2.62282C1.64782 0 0.850098 0.7875 0.850098 1.75V11.375H2.62282C2.62282 12.8275 3.81055 14 5.28192 14C6.75328 14 7.94101 12.8275 7.94101 11.375H13.2592C13.2592 12.8275 14.4469 14 15.9183 14C17.3896 14 18.5774 12.8275 18.5774 11.375H20.3501V7L17.691 3.5ZM5.28192 12.6875C4.54623 12.6875 3.95237 12.1012 3.95237 11.375C3.95237 10.6488 4.54623 10.0625 5.28192 10.0625C6.0176 10.0625 6.61146 10.6488 6.61146 11.375C6.61146 12.1012 6.0176 12.6875 5.28192 12.6875ZM17.2478 4.8125L18.9851 7H15.0319V4.8125H17.2478ZM15.9183 12.6875C15.1826 12.6875 14.5887 12.1012 14.5887 11.375C14.5887 10.6488 15.1826 10.0625 15.9183 10.0625C16.654 10.0625 17.2478 10.6488 17.2478 11.375C17.2478 12.1012 16.654 12.6875 15.9183 12.6875Z" fill="url(#paint0_linear_2056_205)"/>
<defs>
<linearGradient id="paint0_linear_2056_205" x1="20.3501" y1="7" x2="0.850098" y2="7" gradientUnits="userSpaceOnUse">
<stop stop-color="#F74872"/>
<stop offset="0.495" stop-color="#FC7B49"/>
<stop offset="1" stop-color="#F74872"/>
</linearGradient>
</defs>
</svg>
