<svg width="187" height="32" viewBox="0 0 187 32" fill="none" xmlns="http://www.w3.org/2000/svg">
<path fill-rule="evenodd" clip-rule="evenodd" d="M0 32V0H30.014V32H0ZM27.0883 23.2787V14.5473H11.6114V11.6368H27.0883V8.72635H8.76698V17.4578H24.2032V20.3683H8.76698V23.2787H27.0883ZM2.92063 2.92063V29.0794H27.0883V26.1892H5.85651V5.81587H27.0883V2.92063H2.92063ZM53.3334 12.3632V11.2508C53.3334 10.4686 53.0591 9.80316 52.5055 9.25967C51.9518 8.71618 51.2915 8.44189 50.5245 8.44189H41.5899C40.8077 8.44189 40.1423 8.71618 39.5988 9.25967C39.0553 9.80316 38.781 10.4686 38.781 11.2508V14.2425C38.781 15.0248 39.0553 15.6901 39.5988 16.2336C40.1423 16.7771 40.8077 17.0514 41.5899 17.0514H50.5245C50.6058 17.0514 50.6464 17.0971 50.6464 17.1936V20.1854C50.6464 20.2819 50.6058 20.3276 50.5245 20.3276H41.5899C41.4934 20.3276 41.4477 20.2819 41.4477 20.1854V19.073H38.781V20.1854C38.781 20.9676 39.0553 21.633 39.5988 22.1765C40.1423 22.72 40.8077 22.9943 41.5899 22.9943H50.5245C51.2915 22.9943 51.9518 22.72 52.5055 22.1765C53.0591 21.633 53.3334 20.9676 53.3334 20.1854V17.1936C53.3334 16.4114 53.0591 15.746 52.5055 15.2025C51.9518 14.659 51.2915 14.3848 50.5245 14.3848H41.5899C41.4934 14.3848 41.4477 14.339 41.4477 14.2425V11.2508C41.4477 11.1543 41.4934 11.1086 41.5899 11.1086H50.5245C50.6058 11.1086 50.6464 11.1543 50.6464 11.2508V12.3632H53.3334ZM67.2 8.44189H58.2654C57.4832 8.44189 56.8178 8.71618 56.2743 9.25967C55.7308 9.80316 55.4565 10.4686 55.4565 11.2508V20.1854C55.4565 20.9676 55.7308 21.633 56.2743 22.1765C56.8178 22.72 57.4832 22.9943 58.2654 22.9943H67.2C67.967 22.9943 68.6273 22.72 69.181 22.1765C69.7346 21.633 70.0089 20.9676 70.0089 20.1854V11.2508C70.0089 10.4686 69.7346 9.80316 69.181 9.25967C68.6273 8.71618 67.967 8.44189 67.2 8.44189ZM67.2 20.3276H58.2654C58.1689 20.3276 58.1232 20.2819 58.1232 20.1854V11.2508C58.1232 11.1543 58.1689 11.1086 58.2654 11.1086H67.2C67.2813 11.1086 67.3219 11.1543 67.3219 11.2508V20.1854C67.3219 20.2819 67.2813 20.3276 67.2 20.3276ZM84.4647 8.44189H87.1314V22.9943H84.4647V17.0514H74.9257V22.9943H72.259V8.44189H74.9257V14.3848H84.4647V8.44189ZM101.14 8.44189H92.2056C91.4234 8.44189 90.758 8.71618 90.2145 9.25967C89.671 9.80316 89.3967 10.4686 89.3967 11.2508V20.1854C89.3967 20.9676 89.671 21.633 90.2145 22.1765C90.758 22.72 91.4234 22.9943 92.2056 22.9943H101.14C101.907 22.9943 102.568 22.72 103.121 22.1765C103.675 21.633 103.949 20.9676 103.949 20.1854V11.2508C103.949 10.4686 103.675 9.80316 103.121 9.25967C102.568 8.71618 101.907 8.44189 101.14 8.44189ZM101.14 20.3276H92.2056C92.1091 20.3276 92.0634 20.2819 92.0634 20.1854V11.2508C92.0634 11.1543 92.1091 11.1086 92.2056 11.1086H101.14C101.221 11.1086 101.262 11.1543 101.262 11.2508V20.1854C101.262 20.2819 101.221 20.3276 101.14 20.3276ZM120.681 11.1086H108.978C108.881 11.1086 108.836 11.1543 108.836 11.2508V20.1854C108.836 20.2819 108.881 20.3276 108.978 20.3276H120.681V22.9943H108.978C108.196 22.9943 107.535 22.72 106.987 22.1765C106.443 21.633 106.169 20.9676 106.169 20.1854V11.2508C106.169 10.4686 106.443 9.80316 106.987 9.25967C107.53 8.71618 108.196 8.44189 108.978 8.44189H120.681V11.1086ZM134.547 8.44189H125.633C124.851 8.44189 124.185 8.71618 123.642 9.25967C123.099 9.80316 122.824 10.4686 122.824 11.2508V22.9943H125.491V18.1028H134.69V22.9943H137.377V11.2508C137.377 10.4686 137.102 9.80316 136.549 9.25967C135.995 8.71618 135.33 8.44189 134.547 8.44189ZM134.69 15.4362H125.491V11.2508C125.491 11.1543 125.537 11.1086 125.633 11.1086H134.547C134.644 11.1086 134.69 11.1543 134.69 11.2508V15.4362ZM154.133 11.2508V12.3632H151.446V11.2508C151.446 11.1543 151.406 11.1086 151.325 11.1086H142.39C142.293 11.1086 142.248 11.1543 142.248 11.2508V14.2425C142.248 14.339 142.293 14.3848 142.39 14.3848H151.325C152.092 14.3848 152.752 14.659 153.306 15.2025C153.859 15.746 154.133 16.4114 154.133 17.1936V20.1854C154.133 20.9676 153.859 21.633 153.306 22.1765C152.752 22.72 152.092 22.9943 151.325 22.9943H142.39C141.608 22.9943 140.942 22.72 140.399 22.1765C139.855 21.633 139.581 20.9676 139.581 20.1854V19.073H142.248V20.1854C142.248 20.2819 142.293 20.3276 142.39 20.3276H151.325C151.406 20.3276 151.446 20.2819 151.446 20.1854V17.1936C151.446 17.0971 151.406 17.0514 151.325 17.0514H142.39C141.608 17.0514 140.942 16.7771 140.399 16.2336C139.855 15.6901 139.581 15.0248 139.581 14.2425V11.2508C139.581 10.4686 139.855 9.80316 140.399 9.25967C140.942 8.71618 141.608 8.44189 142.39 8.44189H151.325C152.092 8.44189 152.752 8.71618 153.306 9.25967C153.859 9.80316 154.133 10.4686 154.133 11.2508ZM169.717 11.1086V8.44189H156.338V22.9943H169.717V20.3276H159.025V17.0514H167.634V14.3848H159.025V11.1086H169.717ZM186.23 11.2508V12.3632H183.543V11.2508C183.543 11.1543 183.502 11.1086 183.421 11.1086H174.486C174.39 11.1086 174.344 11.1543 174.344 11.2508V14.2425C174.344 14.339 174.39 14.3848 174.486 14.3848H183.421C184.188 14.3848 184.848 14.659 185.402 15.2025C185.956 15.746 186.23 16.4114 186.23 17.1936V20.1854C186.23 20.9676 185.956 21.633 185.402 22.1765C184.848 22.72 184.188 22.9943 183.421 22.9943H174.486C173.704 22.9943 173.039 22.72 172.495 22.1765C171.952 21.633 171.677 20.9676 171.677 20.1854V19.073H174.344V20.1854C174.344 20.2819 174.39 20.3276 174.486 20.3276H183.421C183.502 20.3276 183.543 20.2819 183.543 20.1854V17.1936C183.543 17.0971 183.502 17.0514 183.421 17.0514H174.486C173.704 17.0514 173.039 16.7771 172.495 16.2336C171.952 15.6901 171.677 15.0248 171.677 14.2425V11.2508C171.677 10.4686 171.952 9.80316 172.495 9.25967C173.039 8.71618 173.704 8.44189 174.486 8.44189H183.421C184.188 8.44189 184.848 8.71618 185.402 9.25967C185.956 9.80316 186.23 10.4686 186.23 11.2508Z" fill="url(#paint0_linear_2010_232)"/>
<defs>
<linearGradient id="paint0_linear_2010_232" x1="186.23" y1="16" x2="0" y2="16" gradientUnits="userSpaceOnUse">
<stop stop-color="#F74872"/>
<stop offset="0.495" stop-color="#FC7B49"/>
<stop offset="1" stop-color="#F74872"/>
</linearGradient>
</defs>
</svg>
